<svg xmlns="http://www.w3.org/2000/svg" viewBox="0 0 600 500" fill="none">
  <!-- Warm backdrop blob -->
  <ellipse cx="300" cy="250" rx="260" ry="210" fill="#EBE1D0" opacity="0.6"/>

  <!-- Connection lines (hospital network) -->
  <line x1="105" y1="230" x2="185" y2="200" stroke="#C68A3E" stroke-width="1.2" stroke-dasharray="5 4" opacity="0.35"/>
  <line x1="185" y1="200" x2="255" y2="215" stroke="#C68A3E" stroke-width="1.2" stroke-dasharray="5 4" opacity="0.35"/>
  <line x1="255" y1="215" x2="300" y2="195" stroke="#3E6B6B" stroke-width="1.2" stroke-dasharray="5 4" opacity="0.35"/>
  <line x1="300" y1="195" x2="360" y2="220" stroke="#3E6B6B" stroke-width="1.2" stroke-dasharray="5 4" opacity="0.35"/>
  <line x1="360" y1="220" x2="420" y2="205" stroke="#C68A3E" stroke-width="1.2" stroke-dasharray="5 4" opacity="0.35"/>
  <line x1="420" y1="205" x2="490" y2="230" stroke="#3E6B6B" stroke-width="1.2" stroke-dasharray="5 4" opacity="0.35"/>
  <line x1="185" y1="200" x2="255" y2="280" stroke="#C68A3E" stroke-width="1.2" stroke-dasharray="5 4" opacity="0.25"/>
  <line x1="255" y1="280" x2="360" y2="290" stroke="#3E6B6B" stroke-width="1.2" stroke-dasharray="5 4" opacity="0.25"/>
  <line x1="360" y1="220" x2="360" y2="290" stroke="#C68A3E" stroke-width="1.2" stroke-dasharray="5 4" opacity="0.25"/>
  <line x1="300" y1="195" x2="300" y2="310" stroke="#3E6B6B" stroke-width="1.2" stroke-dasharray="5 4" opacity="0.2"/>

  <!-- Hospital site dots -->
  <circle cx="105" cy="230" r="7" fill="#C68A3E" opacity="0.8"/>
  <circle cx="185" cy="200" r="9" fill="#C68A3E" opacity="0.9"/>
  <circle cx="255" cy="215" r="7" fill="#3E6B6B" opacity="0.8"/>
  <circle cx="300" cy="195" r="11" fill="#C68A3E" opacity="0.95"/>
  <circle cx="255" cy="280" r="7" fill="#3E6B6B" opacity="0.75"/>
  <circle cx="300" cy="310" r="6" fill="#C17B7B" opacity="0.7"/>
  <circle cx="360" cy="220" r="9" fill="#3E6B6B" opacity="0.9"/>
  <circle cx="360" cy="290" r="7" fill="#C68A3E" opacity="0.75"/>
  <circle cx="420" cy="205" r="7" fill="#3E6B6B" opacity="0.8"/>
  <circle cx="490" cy="230" r="8" fill="#C68A3E" opacity="0.85"/>
  <circle cx="145" cy="295" r="6" fill="#8A9A7B" opacity="0.7"/>
  <circle cx="430" cy="300" r="6" fill="#8A9A7B" opacity="0.65"/>
  <circle cx="220" cy="330" r="5" fill="#C17B7B" opacity="0.6"/>
  <circle cx="480" cy="300" r="6" fill="#3E6B6B" opacity="0.7"/>
  <circle cx="135" cy="170" r="5" fill="#C68A3E" opacity="0.6"/>
  <circle cx="460" cy="165" r="5" fill="#3E6B6B" opacity="0.6"/>
</svg>
